# xmcd CD database file
#
# Track frame offsets:
#	150
#	24126
#	40076
#	51688
#	67032
#	86568
#	104234
#	127082
#	143128
#	153564
#	166045
#	182559
#	199073
#	215916
#	233422
#	248672
#	267041
#	283613
#	302069
#	316574
#
# Disc length: 4431 seconds
#
# Revision: 0
# Processed by: cddbd v1.5.2PL0 Copyright (c) Steve Scherf et al.
# Submitted via: CDex 1.78
#
DISCID=1b114d14
DTITLE=Various Artist - TSP Country and America 151
DYEAR=2016
DGENRE=Country
TTITLE0=K A Patterson and The Paradise Band  - America Burning
TTITLE1=Ella Walker - A Cowboy and His Girl
TTITLE2=Mike Lusk - (When I Grow Up I Wanna Be Like) Willie Nelson
TTITLE3=Heather Green - Holding Time
TTITLE4=K A Patterson and The Paradise Band - Twists and Turns
TTITLE5=Brody Caster - Get Country
TTITLE6=Darrell and Nemra Rhoden - Life's Railway To Heaven
TTITLE7=Robert Larabee - It's a Guy Thing
TTITLE8=Cody Joe Hodges - Hellbent On Loving You
TTITLE9=Richard Lynch - You Show Me Yours
TTITLE10=James Lynas - That Old Porch Swing
TTITLE11=Kelley Ray King - Even When I'm Bad
TTITLE12=Lawrence Miller - Lift You Up To Heaven
TTITLE13=Lamar Smyly - See Them Again
TTITLE14=Bernie Early  - We Should Be In Love By Now
TTITLE15=Matchless Grace - My Father Loves Me
TTITLE16=Dave Dykins - Your Heart Will Dance Again
TTITLE17=Michael Stosic - Welcome Home
TTITLE18=Kelley Ray King - Crazy Man Like Me
TTITLE19=Lee 'Beanpot' Dodge - Cabo San Lucas
EXTD=YEAR: 2016
EXTT0=
EXTT1=
EXTT2=
EXTT3=
EXTT4=
EXTT5=
EXTT6=
EXTT7=
EXTT8=
EXTT9=
EXTT10=
EXTT11=
EXTT12=
EXTT13=
EXTT14=
EXTT15=
EXTT16=
EXTT17=
EXTT18=
EXTT19=
PLAYORDER=
